<?xml version="1.0" encoding="UTF-8"?><svg id="Layer_1" xmlns="http://www.w3.org/2000/svg" viewBox="0 0 246.13 47.49"><rect width="246.13" height="47.49" fill="#f9f9f9"/><path d="M112.96,21.9c0,1.66,1.52,2.92,3.38,2.92s3.39-1.25,3.39-2.92c0-.64-.28-1.24-.77-1.72h1.21v-1.32h-2.97v-1.06h-1.74v1.06h-3.02v1.32h1.29c-.5.47-.77,1.08-.77,1.72M116.34,23.47c-1.07,0-1.79-.7-1.79-1.57s.73-1.57,1.79-1.57,1.8.7,1.8,1.57-.72,1.57-1.8,1.57M125.35,18.41v1.36h-1.63v9.66h-9.41c-.32,0-.56-.07-.7-.22-.17-.16-.25-.41-.25-.76v-2.87h1.62v2.5h7.12v-9.67h3.25,0Z" fill="#323132"/><path d="M146.5,18.41v.74c0,1.74-.75,3.02-2.26,3.84-1.11.61-2.55.94-4.31.99v-1.43c1.63-.04,2.88-.35,3.72-.91.74-.49,1.11-1.12,1.11-1.89h-4.65v-1.34h6.39,0ZM150.37,26.76c0-1.89-1.72-3.33-3.85-3.33s-3.85,1.44-3.85,3.33,1.72,3.34,3.85,3.34,3.85-1.44,3.85-3.34M148.72,26.76c0,1.07-.91,1.94-2.2,1.94s-2.2-.87-2.2-1.94.91-1.93,2.2-1.93,2.2.87,2.2,1.93M146.9,19.31v1.34h2.28v.67h-2.28v1.34h2.28v.88h1.63v-5.13h-1.63v.91h-2.28Z" fill="#323132"/><path d="M155.88,23.99c-1.9,0-3.46-1.29-3.46-2.98s1.55-2.98,3.46-2.98,3.46,1.29,3.46,2.98-1.55,2.98-3.46,2.98M155.88,19.42c-1.07,0-1.8.71-1.8,1.58s.73,1.59,1.8,1.59,1.81-.71,1.81-1.59-.73-1.58-1.81-1.58M160.01,30.1c-2.12,0-3.85-1.44-3.85-3.34s1.72-3.33,3.85-3.33,3.85,1.44,3.85,3.33-1.72,3.34-3.85,3.34M160.01,24.83c-1.3,0-2.2.87-2.2,1.93s.91,1.94,2.2,1.94,2.2-.87,2.2-1.94-.91-1.93-2.2-1.93M159.94,19.21v1.34h2.41v.72h-2.41v1.34h2.41v.83h1.63v-5.05h-1.63v.81h-2.41Z" fill="#323132"/><path d="M169.43,24.22c2.01,0,3.64-1.35,3.64-3.14s-1.63-3.14-3.64-3.14-3.64,1.35-3.64,3.14,1.63,3.14,3.64,3.14M169.43,19.35c1.18,0,1.99.77,1.99,1.73s-.81,1.73-1.99,1.73-2-.77-2-1.73.82-1.73,2-1.73M176.93,29.43h-9.41c-.33,0-.56-.07-.7-.22-.17-.16-.25-.41-.25-.76v-2.87h1.63v2.5h7.12v-9.67h1.63v11.02h-.02Z" fill="#323132"/><path d="M190.43,23.11h-11.72v1.35h2.73c-.6.58-.95,1.35-.95,2.25,0,2.03,1.83,3.41,4.09,3.41s4.09-1.37,4.09-3.41c0-.9-.36-1.67-.96-2.25h2.72v-1.35h0ZM184.58,28.84c-1.4,0-2.39-.96-2.39-2.13s.99-2.13,2.39-2.13,2.38.96,2.38,2.13-.99,2.13-2.38,2.13M182.06,22.04c-.76.11-1.74.17-2.94.19v-1.38c1.35-.02,2.36-.1,3.04-.24.83-.19,1.28-.47,1.31-.86h-4.35v-1.33h10.89v1.33h-4.33c.02.37.44.64,1.29.83.71.16,1.72.25,3.05.26v1.39c-1.2,0-2.19-.05-2.98-.17-1.19-.18-2.02-.48-2.47-.91-.46.43-1.3.73-2.5.89" fill="#323132"/><path d="M195.82,25.89h1.61v-1.97h2.8v-1.34h-1.7c.63-.44,1.04-1.08,1.04-1.88,0-1.76-1.63-2.82-3.46-2.82s-3.46,1.07-3.46,2.82c0,.8.4,1.44,1.04,1.88h-1.68v1.34h3.81v1.97h0ZM196.11,19.11c1.04,0,1.86.71,1.86,1.58s-.82,1.58-1.86,1.58-1.86-.71-1.86-1.58.82-1.58,1.86-1.58M203.32,18.41v11.02h-9.39c-.32,0-.56-.07-.72-.22-.17-.16-.25-.42-.25-.77v-3.22h1.59v2.86h7.15v-8.35h-1.82v-1.32h3.45,0Z" fill="#323132"/><path d="M133.02,23.52v1.77h3.67c.32,0,.56.07.7.22.17.16.25.41.25.76v3.22h-1.62v-2.86h-9.27v-1.35h4.67v-1.77h-5.09v-1.37h9.68v-2.4h-9.27v-1.35h9.94c.32,0,.56.07.7.22.17.16.25.41.25.76v2.76h.6v1.37h-5.22.02Z" fill="#323132"/><path d="M107,23.74c0,6.45-5.23,11.68-11.68,11.68-3.51,0-6.64-1.55-8.78-3.99h2.39v-5.2c.77.06,1.7.08,2.55.02l2.73,5.19h5.06l-3.6-5.88.3-.18c1.63-.97,2.57-2.52,2.57-4.28,0-3.3-2.58-4.9-7.87-4.9-1.1,0-2.91.11-4.46.24,2.14-2.66,5.43-4.38,9.11-4.38,6.46,0,11.68,5.23,11.68,11.68M93.68,21.03c0-1.59-1.17-2.61-2.98-2.61-1.01,0-1.79.18-1.79.18v5.32s.56.1,1.52.1c2.03,0,3.24-1.11,3.24-2.98" fill="#de254e"/><polygon points="52.8 31.44 47.48 24.15 47.48 31.44 42.8 31.44 42.8 16.37 47.48 16.37 47.48 23.11 52.55 16.37 57.93 16.37 51.87 23.53 58.21 31.44 52.8 31.44" fill="#323132"/><path d="M79.48,31.44v-9.27c0-1.56-.67-2.35-1.99-2.35-1.08,0-2.11.62-3.35,2.01l-.09.1v9.52h-4.71v-9.24c0-1.56-.67-2.35-1.99-2.35-1.05,0-2.08.62-3.35,2.01l-.1.1v9.49h-4.71v-15.06h4.57v3.38l.61-.66c1.99-2.14,3.54-3.01,5.34-3.01,2.12,0,3.4.91,4.02,2.88l.18.58.41-.44c1.94-2.08,3.7-3.05,5.52-3.05,2.75,0,4.33,1.77,4.33,4.84v10.55s-4.71,0-4.71,0Z" fill="#323132"/></svg>